<mxfile host="app.diagrams.net" agent="Mozilla/5.0 (Windows NT 10.0; Win64; x64) AppleWebKit/537.36 (KHTML, like Gecko) Chrome/128.0.0.0 Safari/537.36" version="24.7.14" pages="3">
  <diagram name="program 1" id="ohcsx0MH9pctB0aymExe">
    <mxGraphModel dx="1050" dy="603" grid="1" gridSize="10" guides="1" tooltips="1" connect="1" arrows="1" fold="1" page="1" pageScale="1" pageWidth="850" pageHeight="1100" math="0" shadow="0">
      <root>
        <mxCell id="0" />
        <mxCell id="1" parent="0" />
        <mxCell id="Eqv4CP0aB7Q_ipLCEBHo-2" value="&lt;b&gt;&lt;font style=&quot;font-size: 48px;&quot;&gt;Program 1&lt;/font&gt;&lt;/b&gt;" style="text;html=1;align=center;verticalAlign=middle;whiteSpace=wrap;rounded=0;" vertex="1" parent="1">
          <mxGeometry width="350" height="90" as="geometry" />
        </mxCell>
        <mxCell id="Eqv4CP0aB7Q_ipLCEBHo-3" value="START" style="rounded=1;whiteSpace=wrap;html=1;" vertex="1" parent="1">
          <mxGeometry x="235" y="110" width="120" height="60" as="geometry" />
        </mxCell>
        <mxCell id="Eqv4CP0aB7Q_ipLCEBHo-5" value="GET num1, num2" style="shape=parallelogram;perimeter=parallelogramPerimeter;whiteSpace=wrap;html=1;fixedSize=1;" vertex="1" parent="1">
          <mxGeometry x="220" y="220" width="150" height="60" as="geometry" />
        </mxCell>
        <mxCell id="Eqv4CP0aB7Q_ipLCEBHo-6" value="num1 == num2&lt;div&gt;?&lt;/div&gt;" style="rhombus;whiteSpace=wrap;html=1;" vertex="1" parent="1">
          <mxGeometry x="235" y="330" width="120" height="110" as="geometry" />
        </mxCell>
        <mxCell id="Eqv4CP0aB7Q_ipLCEBHo-7" value="" style="endArrow=classic;html=1;rounded=0;exitX=0.5;exitY=1;exitDx=0;exitDy=0;entryX=0.5;entryY=0;entryDx=0;entryDy=0;" edge="1" parent="1" source="Eqv4CP0aB7Q_ipLCEBHo-3" target="Eqv4CP0aB7Q_ipLCEBHo-5">
          <mxGeometry width="50" height="50" relative="1" as="geometry">
            <mxPoint x="275" y="330" as="sourcePoint" />
            <mxPoint x="325" y="280" as="targetPoint" />
          </mxGeometry>
        </mxCell>
        <mxCell id="Eqv4CP0aB7Q_ipLCEBHo-8" value="" style="endArrow=classic;html=1;rounded=0;exitX=0.5;exitY=1;exitDx=0;exitDy=0;entryX=0.5;entryY=0;entryDx=0;entryDy=0;" edge="1" parent="1">
          <mxGeometry width="50" height="50" relative="1" as="geometry">
            <mxPoint x="294.5" y="280" as="sourcePoint" />
            <mxPoint x="294.5" y="330" as="targetPoint" />
          </mxGeometry>
        </mxCell>
        <mxCell id="Eqv4CP0aB7Q_ipLCEBHo-9" value="Yes" style="text;html=1;align=center;verticalAlign=middle;whiteSpace=wrap;rounded=0;" vertex="1" parent="1">
          <mxGeometry x="380" y="360" width="60" height="30" as="geometry" />
        </mxCell>
        <mxCell id="Eqv4CP0aB7Q_ipLCEBHo-10" value="No" style="text;html=1;align=center;verticalAlign=middle;whiteSpace=wrap;rounded=0;" vertex="1" parent="1">
          <mxGeometry x="295" y="440" width="60" height="30" as="geometry" />
        </mxCell>
        <mxCell id="Eqv4CP0aB7Q_ipLCEBHo-11" value="num1 &amp;gt; num2&lt;div&gt;?&lt;/div&gt;" style="rhombus;whiteSpace=wrap;html=1;" vertex="1" parent="1">
          <mxGeometry x="242.5" y="480" width="105" height="100" as="geometry" />
        </mxCell>
        <mxCell id="Eqv4CP0aB7Q_ipLCEBHo-12" value="DISPLAY &quot;Both numbers are equal&quot;" style="shape=parallelogram;perimeter=parallelogramPerimeter;whiteSpace=wrap;html=1;fixedSize=1;" vertex="1" parent="1">
          <mxGeometry x="480" y="360" width="190" height="50" as="geometry" />
        </mxCell>
        <mxCell id="Eqv4CP0aB7Q_ipLCEBHo-13" value="" style="endArrow=classic;html=1;rounded=0;exitX=1;exitY=0.5;exitDx=0;exitDy=0;entryX=0;entryY=0.5;entryDx=0;entryDy=0;" edge="1" parent="1" source="Eqv4CP0aB7Q_ipLCEBHo-6" target="Eqv4CP0aB7Q_ipLCEBHo-12">
          <mxGeometry width="50" height="50" relative="1" as="geometry">
            <mxPoint x="420" y="590" as="sourcePoint" />
            <mxPoint x="470" y="540" as="targetPoint" />
          </mxGeometry>
        </mxCell>
        <mxCell id="Eqv4CP0aB7Q_ipLCEBHo-14" value="" style="endArrow=classic;html=1;rounded=0;exitX=0.5;exitY=1;exitDx=0;exitDy=0;entryX=0.5;entryY=0;entryDx=0;entryDy=0;" edge="1" parent="1" source="Eqv4CP0aB7Q_ipLCEBHo-6" target="Eqv4CP0aB7Q_ipLCEBHo-11">
          <mxGeometry width="50" height="50" relative="1" as="geometry">
            <mxPoint x="420" y="590" as="sourcePoint" />
            <mxPoint x="470" y="540" as="targetPoint" />
          </mxGeometry>
        </mxCell>
        <mxCell id="Eqv4CP0aB7Q_ipLCEBHo-15" value="DISPLAY &quot;num1 is bigger than num2&quot;" style="shape=parallelogram;perimeter=parallelogramPerimeter;whiteSpace=wrap;html=1;fixedSize=1;" vertex="1" parent="1">
          <mxGeometry x="480" y="500" width="190" height="50" as="geometry" />
        </mxCell>
        <mxCell id="Eqv4CP0aB7Q_ipLCEBHo-16" value="" style="endArrow=classic;html=1;rounded=0;exitX=1;exitY=0.5;exitDx=0;exitDy=0;entryX=0;entryY=0.5;entryDx=0;entryDy=0;" edge="1" parent="1">
          <mxGeometry width="50" height="50" relative="1" as="geometry">
            <mxPoint x="350" y="529.5" as="sourcePoint" />
            <mxPoint x="485" y="529.5" as="targetPoint" />
          </mxGeometry>
        </mxCell>
        <mxCell id="Eqv4CP0aB7Q_ipLCEBHo-17" value="Yes" style="text;html=1;align=center;verticalAlign=middle;whiteSpace=wrap;rounded=0;" vertex="1" parent="1">
          <mxGeometry x="380" y="500" width="60" height="30" as="geometry" />
        </mxCell>
        <mxCell id="Eqv4CP0aB7Q_ipLCEBHo-18" value="No" style="text;html=1;align=center;verticalAlign=middle;whiteSpace=wrap;rounded=0;" vertex="1" parent="1">
          <mxGeometry x="295" y="590" width="60" height="30" as="geometry" />
        </mxCell>
        <mxCell id="Eqv4CP0aB7Q_ipLCEBHo-19" value="DISPLAY &quot;num2 is bigger than num1&quot;" style="shape=parallelogram;perimeter=parallelogramPerimeter;whiteSpace=wrap;html=1;fixedSize=1;" vertex="1" parent="1">
          <mxGeometry x="200" y="640" width="190" height="50" as="geometry" />
        </mxCell>
        <mxCell id="Eqv4CP0aB7Q_ipLCEBHo-20" value="" style="endArrow=classic;html=1;rounded=0;exitX=0.5;exitY=1;exitDx=0;exitDy=0;entryX=0.5;entryY=0;entryDx=0;entryDy=0;" edge="1" parent="1" source="Eqv4CP0aB7Q_ipLCEBHo-11" target="Eqv4CP0aB7Q_ipLCEBHo-19">
          <mxGeometry width="50" height="50" relative="1" as="geometry">
            <mxPoint x="420" y="590" as="sourcePoint" />
            <mxPoint x="470" y="540" as="targetPoint" />
          </mxGeometry>
        </mxCell>
        <mxCell id="Eqv4CP0aB7Q_ipLCEBHo-21" value="END" style="rounded=1;whiteSpace=wrap;html=1;" vertex="1" parent="1">
          <mxGeometry x="235" y="740" width="120" height="60" as="geometry" />
        </mxCell>
        <mxCell id="Eqv4CP0aB7Q_ipLCEBHo-22" value="" style="endArrow=classic;html=1;rounded=0;exitX=0.5;exitY=1;exitDx=0;exitDy=0;entryX=0.5;entryY=0;entryDx=0;entryDy=0;" edge="1" parent="1" target="Eqv4CP0aB7Q_ipLCEBHo-21">
          <mxGeometry width="50" height="50" relative="1" as="geometry">
            <mxPoint x="294" y="690" as="sourcePoint" />
            <mxPoint x="294" y="750" as="targetPoint" />
          </mxGeometry>
        </mxCell>
        <mxCell id="Eqv4CP0aB7Q_ipLCEBHo-23" value="" style="ellipse;whiteSpace=wrap;html=1;aspect=fixed;" vertex="1" parent="1">
          <mxGeometry x="700" y="640" width="60" height="60" as="geometry" />
        </mxCell>
        <mxCell id="Eqv4CP0aB7Q_ipLCEBHo-24" value="" style="endArrow=classic;html=1;rounded=0;entryX=0.5;entryY=0;entryDx=0;entryDy=0;" edge="1" parent="1" target="Eqv4CP0aB7Q_ipLCEBHo-23">
          <mxGeometry width="50" height="50" relative="1" as="geometry">
            <mxPoint x="730" y="390" as="sourcePoint" />
            <mxPoint x="730" y="630" as="targetPoint" />
          </mxGeometry>
        </mxCell>
        <mxCell id="Eqv4CP0aB7Q_ipLCEBHo-25" value="" style="endArrow=classic;html=1;rounded=0;exitX=1;exitY=0.5;exitDx=0;exitDy=0;" edge="1" parent="1" source="Eqv4CP0aB7Q_ipLCEBHo-12">
          <mxGeometry width="50" height="50" relative="1" as="geometry">
            <mxPoint x="420" y="620" as="sourcePoint" />
            <mxPoint x="730" y="385" as="targetPoint" />
          </mxGeometry>
        </mxCell>
        <mxCell id="Eqv4CP0aB7Q_ipLCEBHo-26" value="" style="endArrow=classic;html=1;rounded=0;exitX=1;exitY=0.5;exitDx=0;exitDy=0;" edge="1" parent="1" source="Eqv4CP0aB7Q_ipLCEBHo-15">
          <mxGeometry width="50" height="50" relative="1" as="geometry">
            <mxPoint x="420" y="620" as="sourcePoint" />
            <mxPoint x="730" y="525" as="targetPoint" />
          </mxGeometry>
        </mxCell>
        <mxCell id="Eqv4CP0aB7Q_ipLCEBHo-27" value="" style="endArrow=classic;html=1;rounded=0;" edge="1" parent="1">
          <mxGeometry width="50" height="50" relative="1" as="geometry">
            <mxPoint x="730" y="710" as="sourcePoint" />
            <mxPoint x="295" y="710" as="targetPoint" />
          </mxGeometry>
        </mxCell>
        <mxCell id="Eqv4CP0aB7Q_ipLCEBHo-28" value="" style="endArrow=none;html=1;rounded=0;entryX=0.5;entryY=1;entryDx=0;entryDy=0;" edge="1" parent="1" target="Eqv4CP0aB7Q_ipLCEBHo-23">
          <mxGeometry width="50" height="50" relative="1" as="geometry">
            <mxPoint x="730" y="710" as="sourcePoint" />
            <mxPoint x="470" y="570" as="targetPoint" />
          </mxGeometry>
        </mxCell>
      </root>
    </mxGraphModel>
  </diagram>
  <diagram id="-PTYiS1KH158_oBJUA1_" name="program 2">
    <mxGraphModel dx="724" dy="416" grid="1" gridSize="10" guides="1" tooltips="1" connect="1" arrows="1" fold="1" page="1" pageScale="1" pageWidth="850" pageHeight="1100" math="0" shadow="0">
      <root>
        <mxCell id="0" />
        <mxCell id="1" parent="0" />
        <mxCell id="Nnw2OGy8oXGx50_tWzD4-1" value="&lt;b&gt;&lt;font style=&quot;font-size: 48px;&quot;&gt;Program 2&lt;/font&gt;&lt;/b&gt;" style="text;html=1;align=center;verticalAlign=middle;whiteSpace=wrap;rounded=0;" vertex="1" parent="1">
          <mxGeometry width="350" height="90" as="geometry" />
        </mxCell>
        <mxCell id="Nnw2OGy8oXGx50_tWzD4-2" value="START" style="rounded=1;whiteSpace=wrap;html=1;" vertex="1" parent="1">
          <mxGeometry x="250" y="130" width="120" height="60" as="geometry" />
        </mxCell>
        <mxCell id="Nnw2OGy8oXGx50_tWzD4-3" value="GET key" style="shape=parallelogram;perimeter=parallelogramPerimeter;whiteSpace=wrap;html=1;fixedSize=1;" vertex="1" parent="1">
          <mxGeometry x="250" y="240" width="120" height="60" as="geometry" />
        </mxCell>
        <mxCell id="Nnw2OGy8oXGx50_tWzD4-4" value="key == &#39;Y&#39;&lt;div&gt;?&lt;/div&gt;" style="rhombus;whiteSpace=wrap;html=1;" vertex="1" parent="1">
          <mxGeometry x="270" y="360" width="80" height="80" as="geometry" />
        </mxCell>
        <mxCell id="Nnw2OGy8oXGx50_tWzD4-5" value="DISPLAY &quot;Yes&quot;" style="shape=parallelogram;perimeter=parallelogramPerimeter;whiteSpace=wrap;html=1;fixedSize=1;" vertex="1" parent="1">
          <mxGeometry x="480" y="370" width="120" height="60" as="geometry" />
        </mxCell>
        <mxCell id="Nnw2OGy8oXGx50_tWzD4-6" value="" style="endArrow=classic;html=1;rounded=0;exitX=0.5;exitY=1;exitDx=0;exitDy=0;" edge="1" parent="1" source="Nnw2OGy8oXGx50_tWzD4-2" target="Nnw2OGy8oXGx50_tWzD4-3">
          <mxGeometry width="50" height="50" relative="1" as="geometry">
            <mxPoint x="400" y="430" as="sourcePoint" />
            <mxPoint x="450" y="380" as="targetPoint" />
          </mxGeometry>
        </mxCell>
        <mxCell id="Nnw2OGy8oXGx50_tWzD4-7" value="" style="endArrow=classic;html=1;rounded=0;exitX=0.5;exitY=1;exitDx=0;exitDy=0;entryX=0.5;entryY=0;entryDx=0;entryDy=0;" edge="1" parent="1" target="Nnw2OGy8oXGx50_tWzD4-4">
          <mxGeometry width="50" height="50" relative="1" as="geometry">
            <mxPoint x="309.71" y="300" as="sourcePoint" />
            <mxPoint x="309.71" y="350" as="targetPoint" />
          </mxGeometry>
        </mxCell>
        <mxCell id="Nnw2OGy8oXGx50_tWzD4-8" value="YES" style="text;html=1;align=center;verticalAlign=middle;whiteSpace=wrap;rounded=0;" vertex="1" parent="1">
          <mxGeometry x="380" y="370" width="60" height="30" as="geometry" />
        </mxCell>
        <mxCell id="Nnw2OGy8oXGx50_tWzD4-9" value="" style="endArrow=classic;html=1;rounded=0;" edge="1" parent="1" target="Nnw2OGy8oXGx50_tWzD4-5">
          <mxGeometry width="50" height="50" relative="1" as="geometry">
            <mxPoint x="350" y="400" as="sourcePoint" />
            <mxPoint x="400" y="350" as="targetPoint" />
          </mxGeometry>
        </mxCell>
        <mxCell id="Nnw2OGy8oXGx50_tWzD4-10" value="NO" style="text;html=1;align=center;verticalAlign=middle;whiteSpace=wrap;rounded=0;" vertex="1" parent="1">
          <mxGeometry x="300" y="450" width="60" height="30" as="geometry" />
        </mxCell>
        <mxCell id="Nnw2OGy8oXGx50_tWzD4-12" value="key == &#39;N&#39;&lt;div&gt;?&lt;/div&gt;" style="rhombus;whiteSpace=wrap;html=1;" vertex="1" parent="1">
          <mxGeometry x="270" y="490" width="80" height="80" as="geometry" />
        </mxCell>
        <mxCell id="Nnw2OGy8oXGx50_tWzD4-13" value="" style="endArrow=classic;html=1;rounded=0;" edge="1" parent="1">
          <mxGeometry width="50" height="50" relative="1" as="geometry">
            <mxPoint x="350" y="529.71" as="sourcePoint" />
            <mxPoint x="490" y="529.71" as="targetPoint" />
          </mxGeometry>
        </mxCell>
        <mxCell id="Nnw2OGy8oXGx50_tWzD4-14" value="YES" style="text;html=1;align=center;verticalAlign=middle;whiteSpace=wrap;rounded=0;" vertex="1" parent="1">
          <mxGeometry x="380" y="500" width="60" height="30" as="geometry" />
        </mxCell>
        <mxCell id="Nnw2OGy8oXGx50_tWzD4-15" value="DISPLAY &quot;No&quot;" style="shape=parallelogram;perimeter=parallelogramPerimeter;whiteSpace=wrap;html=1;fixedSize=1;" vertex="1" parent="1">
          <mxGeometry x="480" y="500" width="120" height="60" as="geometry" />
        </mxCell>
        <mxCell id="Nnw2OGy8oXGx50_tWzD4-16" value="" style="endArrow=classic;html=1;rounded=0;exitX=0.5;exitY=1;exitDx=0;exitDy=0;entryX=0.5;entryY=0;entryDx=0;entryDy=0;" edge="1" parent="1" source="Nnw2OGy8oXGx50_tWzD4-4" target="Nnw2OGy8oXGx50_tWzD4-12">
          <mxGeometry width="50" height="50" relative="1" as="geometry">
            <mxPoint x="430" y="570" as="sourcePoint" />
            <mxPoint x="480" y="520" as="targetPoint" />
          </mxGeometry>
        </mxCell>
        <mxCell id="Nnw2OGy8oXGx50_tWzD4-17" value="" style="endArrow=classic;html=1;rounded=0;exitX=0.5;exitY=1;exitDx=0;exitDy=0;entryX=0.5;entryY=0;entryDx=0;entryDy=0;" edge="1" parent="1">
          <mxGeometry width="50" height="50" relative="1" as="geometry">
            <mxPoint x="309.66" y="570" as="sourcePoint" />
            <mxPoint x="309.66" y="620" as="targetPoint" />
          </mxGeometry>
        </mxCell>
        <mxCell id="Nnw2OGy8oXGx50_tWzD4-18" value="NO" style="text;html=1;align=center;verticalAlign=middle;whiteSpace=wrap;rounded=0;" vertex="1" parent="1">
          <mxGeometry x="330" y="570" width="60" height="30" as="geometry" />
        </mxCell>
        <mxCell id="Nnw2OGy8oXGx50_tWzD4-19" value="DISPLAY &quot;Invalid Key&quot;" style="shape=parallelogram;perimeter=parallelogramPerimeter;whiteSpace=wrap;html=1;fixedSize=1;" vertex="1" parent="1">
          <mxGeometry x="250" y="620" width="120" height="60" as="geometry" />
        </mxCell>
        <mxCell id="Nnw2OGy8oXGx50_tWzD4-20" value="END" style="rounded=1;whiteSpace=wrap;html=1;" vertex="1" parent="1">
          <mxGeometry x="250" y="720" width="120" height="60" as="geometry" />
        </mxCell>
        <mxCell id="Nnw2OGy8oXGx50_tWzD4-21" value="" style="endArrow=classic;html=1;rounded=0;exitX=0.453;exitY=1.018;exitDx=0;exitDy=0;exitPerimeter=0;" edge="1" parent="1" source="Nnw2OGy8oXGx50_tWzD4-19" target="Nnw2OGy8oXGx50_tWzD4-20">
          <mxGeometry width="50" height="50" relative="1" as="geometry">
            <mxPoint x="420" y="760" as="sourcePoint" />
            <mxPoint x="470" y="710" as="targetPoint" />
          </mxGeometry>
        </mxCell>
        <mxCell id="Nnw2OGy8oXGx50_tWzD4-22" value="" style="ellipse;whiteSpace=wrap;html=1;aspect=fixed;" vertex="1" parent="1">
          <mxGeometry x="640" y="680" width="40" height="40" as="geometry" />
        </mxCell>
        <mxCell id="Nnw2OGy8oXGx50_tWzD4-23" value="" style="endArrow=classic;html=1;rounded=0;entryX=0.5;entryY=0;entryDx=0;entryDy=0;" edge="1" parent="1" target="Nnw2OGy8oXGx50_tWzD4-22">
          <mxGeometry width="50" height="50" relative="1" as="geometry">
            <mxPoint x="660" y="400" as="sourcePoint" />
            <mxPoint x="470" y="570" as="targetPoint" />
          </mxGeometry>
        </mxCell>
        <mxCell id="Nnw2OGy8oXGx50_tWzD4-24" value="" style="endArrow=classic;html=1;rounded=0;exitX=1;exitY=0.5;exitDx=0;exitDy=0;" edge="1" parent="1" source="Nnw2OGy8oXGx50_tWzD4-5">
          <mxGeometry width="50" height="50" relative="1" as="geometry">
            <mxPoint x="420" y="620" as="sourcePoint" />
            <mxPoint x="660" y="400" as="targetPoint" />
          </mxGeometry>
        </mxCell>
        <mxCell id="Nnw2OGy8oXGx50_tWzD4-25" value="" style="endArrow=classic;html=1;rounded=0;exitX=1;exitY=0.5;exitDx=0;exitDy=0;" edge="1" parent="1" source="Nnw2OGy8oXGx50_tWzD4-15">
          <mxGeometry width="50" height="50" relative="1" as="geometry">
            <mxPoint x="420" y="620" as="sourcePoint" />
            <mxPoint x="660" y="530" as="targetPoint" />
          </mxGeometry>
        </mxCell>
        <mxCell id="Nnw2OGy8oXGx50_tWzD4-26" value="" style="endArrow=classic;html=1;rounded=0;exitX=0;exitY=0.5;exitDx=0;exitDy=0;" edge="1" parent="1" source="Nnw2OGy8oXGx50_tWzD4-22">
          <mxGeometry width="50" height="50" relative="1" as="geometry">
            <mxPoint x="420" y="690" as="sourcePoint" />
            <mxPoint x="310" y="700" as="targetPoint" />
          </mxGeometry>
        </mxCell>
      </root>
    </mxGraphModel>
  </diagram>
  <diagram id="0r8pGS1_-12t-kzDjt1O" name="program 3">
    <mxGraphModel dx="1050" dy="603" grid="1" gridSize="10" guides="1" tooltips="1" connect="1" arrows="1" fold="1" page="1" pageScale="1" pageWidth="850" pageHeight="1100" math="0" shadow="0">
      <root>
        <mxCell id="0" />
        <mxCell id="1" parent="0" />
        <mxCell id="MY9QReCegGXV87JuzJlH-1" value="&lt;b&gt;&lt;font style=&quot;font-size: 48px;&quot;&gt;Program 3&lt;/font&gt;&lt;/b&gt;" style="text;html=1;align=center;verticalAlign=middle;whiteSpace=wrap;rounded=0;" vertex="1" parent="1">
          <mxGeometry width="350" height="90" as="geometry" />
        </mxCell>
        <mxCell id="MY9QReCegGXV87JuzJlH-2" value="START" style="rounded=1;whiteSpace=wrap;html=1;" vertex="1" parent="1">
          <mxGeometry x="220" y="110" width="120" height="60" as="geometry" />
        </mxCell>
        <mxCell id="MY9QReCegGXV87JuzJlH-3" value="" style="endArrow=classic;html=1;rounded=0;exitX=0.5;exitY=1;exitDx=0;exitDy=0;" edge="1" parent="1" source="MY9QReCegGXV87JuzJlH-2">
          <mxGeometry width="50" height="50" relative="1" as="geometry">
            <mxPoint x="380" y="330" as="sourcePoint" />
            <mxPoint x="280" y="230" as="targetPoint" />
          </mxGeometry>
        </mxCell>
        <mxCell id="MY9QReCegGXV87JuzJlH-4" value="GET length1, width1, length2, width2" style="shape=parallelogram;perimeter=parallelogramPerimeter;whiteSpace=wrap;html=1;fixedSize=1;" vertex="1" parent="1">
          <mxGeometry x="160" y="230" width="250" height="60" as="geometry" />
        </mxCell>
        <mxCell id="MY9QReCegGXV87JuzJlH-5" value="COMPUTE area1 = length1 * width1" style="rounded=0;whiteSpace=wrap;html=1;" vertex="1" parent="1">
          <mxGeometry x="165" y="330" width="240" height="60" as="geometry" />
        </mxCell>
        <mxCell id="MY9QReCegGXV87JuzJlH-6" value="COMPUTE area2 = length2 * width2" style="rounded=0;whiteSpace=wrap;html=1;" vertex="1" parent="1">
          <mxGeometry x="165" y="430" width="240" height="60" as="geometry" />
        </mxCell>
        <mxCell id="MY9QReCegGXV87JuzJlH-7" value="" style="endArrow=classic;html=1;rounded=0;exitX=0.5;exitY=1;exitDx=0;exitDy=0;entryX=0.5;entryY=0;entryDx=0;entryDy=0;" edge="1" parent="1" source="MY9QReCegGXV87JuzJlH-4" target="MY9QReCegGXV87JuzJlH-5">
          <mxGeometry width="50" height="50" relative="1" as="geometry">
            <mxPoint x="380" y="330" as="sourcePoint" />
            <mxPoint x="430" y="280" as="targetPoint" />
          </mxGeometry>
        </mxCell>
        <mxCell id="MY9QReCegGXV87JuzJlH-8" value="" style="endArrow=classic;html=1;rounded=0;exitX=0.5;exitY=1;exitDx=0;exitDy=0;entryX=0.5;entryY=0;entryDx=0;entryDy=0;" edge="1" parent="1" source="MY9QReCegGXV87JuzJlH-5" target="MY9QReCegGXV87JuzJlH-6">
          <mxGeometry width="50" height="50" relative="1" as="geometry">
            <mxPoint x="380" y="330" as="sourcePoint" />
            <mxPoint x="430" y="280" as="targetPoint" />
          </mxGeometry>
        </mxCell>
        <mxCell id="MY9QReCegGXV87JuzJlH-9" value="area1 &amp;gt; area2" style="rhombus;whiteSpace=wrap;html=1;" vertex="1" parent="1">
          <mxGeometry x="220" y="550" width="120" height="80" as="geometry" />
        </mxCell>
        <mxCell id="MY9QReCegGXV87JuzJlH-10" value="" style="endArrow=classic;html=1;rounded=0;exitX=0.5;exitY=1;exitDx=0;exitDy=0;" edge="1" parent="1" target="MY9QReCegGXV87JuzJlH-9">
          <mxGeometry width="50" height="50" relative="1" as="geometry">
            <mxPoint x="279.5" y="490" as="sourcePoint" />
            <mxPoint x="280" y="530" as="targetPoint" />
          </mxGeometry>
        </mxCell>
        <mxCell id="MY9QReCegGXV87JuzJlH-11" value="YES" style="text;html=1;align=center;verticalAlign=middle;whiteSpace=wrap;rounded=0;" vertex="1" parent="1">
          <mxGeometry x="350" y="550" width="60" height="30" as="geometry" />
        </mxCell>
        <mxCell id="MY9QReCegGXV87JuzJlH-12" value="DISPLAY &quot;area1 is greater than area2&quot;" style="shape=parallelogram;perimeter=parallelogramPerimeter;whiteSpace=wrap;html=1;fixedSize=1;" vertex="1" parent="1">
          <mxGeometry x="425" y="570" width="240" height="40" as="geometry" />
        </mxCell>
        <mxCell id="MY9QReCegGXV87JuzJlH-13" value="" style="endArrow=classic;html=1;rounded=0;exitX=1;exitY=0.5;exitDx=0;exitDy=0;entryX=0;entryY=0.5;entryDx=0;entryDy=0;" edge="1" parent="1" source="MY9QReCegGXV87JuzJlH-9" target="MY9QReCegGXV87JuzJlH-12">
          <mxGeometry width="50" height="50" relative="1" as="geometry">
            <mxPoint x="380" y="660" as="sourcePoint" />
            <mxPoint x="430" y="610" as="targetPoint" />
          </mxGeometry>
        </mxCell>
        <mxCell id="MY9QReCegGXV87JuzJlH-14" value="NO" style="text;html=1;align=center;verticalAlign=middle;whiteSpace=wrap;rounded=0;" vertex="1" parent="1">
          <mxGeometry x="280" y="640" width="60" height="30" as="geometry" />
        </mxCell>
        <mxCell id="MY9QReCegGXV87JuzJlH-15" value="area1 &amp;lt; area2" style="rhombus;whiteSpace=wrap;html=1;" vertex="1" parent="1">
          <mxGeometry x="220" y="680" width="120" height="80" as="geometry" />
        </mxCell>
        <mxCell id="MY9QReCegGXV87JuzJlH-16" value="NO" style="text;html=1;align=center;verticalAlign=middle;whiteSpace=wrap;rounded=0;" vertex="1" parent="1">
          <mxGeometry x="270" y="770" width="60" height="30" as="geometry" />
        </mxCell>
        <mxCell id="MY9QReCegGXV87JuzJlH-17" value="YES" style="text;html=1;align=center;verticalAlign=middle;whiteSpace=wrap;rounded=0;" vertex="1" parent="1">
          <mxGeometry x="350" y="690" width="60" height="30" as="geometry" />
        </mxCell>
        <mxCell id="MY9QReCegGXV87JuzJlH-18" value="DISPLAY &quot;area2 is greater than area1&quot;" style="shape=parallelogram;perimeter=parallelogramPerimeter;whiteSpace=wrap;html=1;fixedSize=1;" vertex="1" parent="1">
          <mxGeometry x="410" y="700" width="240" height="40" as="geometry" />
        </mxCell>
        <mxCell id="MY9QReCegGXV87JuzJlH-21" value="" style="endArrow=classic;html=1;rounded=0;exitX=0.5;exitY=1;exitDx=0;exitDy=0;" edge="1" parent="1" source="MY9QReCegGXV87JuzJlH-9" target="MY9QReCegGXV87JuzJlH-15">
          <mxGeometry width="50" height="50" relative="1" as="geometry">
            <mxPoint x="380" y="740" as="sourcePoint" />
            <mxPoint x="430" y="690" as="targetPoint" />
          </mxGeometry>
        </mxCell>
        <mxCell id="MY9QReCegGXV87JuzJlH-22" value="" style="endArrow=classic;html=1;rounded=0;exitX=0;exitY=1;exitDx=0;exitDy=0;entryX=1;entryY=1;entryDx=0;entryDy=0;" edge="1" parent="1" source="MY9QReCegGXV87JuzJlH-17" target="MY9QReCegGXV87JuzJlH-17">
          <mxGeometry width="50" height="50" relative="1" as="geometry">
            <mxPoint x="380" y="740" as="sourcePoint" />
            <mxPoint x="430" y="690" as="targetPoint" />
          </mxGeometry>
        </mxCell>
        <mxCell id="MY9QReCegGXV87JuzJlH-23" value="DISPLAY &quot;Both are equal&quot;" style="shape=parallelogram;perimeter=parallelogramPerimeter;whiteSpace=wrap;html=1;fixedSize=1;" vertex="1" parent="1">
          <mxGeometry x="185" y="830" width="190" height="40" as="geometry" />
        </mxCell>
        <mxCell id="MY9QReCegGXV87JuzJlH-24" value="" style="endArrow=classic;html=1;rounded=0;exitX=0.5;exitY=1;exitDx=0;exitDy=0;entryX=0.5;entryY=0;entryDx=0;entryDy=0;" edge="1" parent="1" source="MY9QReCegGXV87JuzJlH-15" target="MY9QReCegGXV87JuzJlH-23">
          <mxGeometry width="50" height="50" relative="1" as="geometry">
            <mxPoint x="380" y="800" as="sourcePoint" />
            <mxPoint x="430" y="750" as="targetPoint" />
          </mxGeometry>
        </mxCell>
        <mxCell id="MY9QReCegGXV87JuzJlH-25" value="END" style="rounded=1;whiteSpace=wrap;html=1;" vertex="1" parent="1">
          <mxGeometry x="220" y="920" width="120" height="60" as="geometry" />
        </mxCell>
        <mxCell id="MY9QReCegGXV87JuzJlH-26" value="" style="endArrow=classic;html=1;rounded=0;exitX=0.5;exitY=1;exitDx=0;exitDy=0;" edge="1" parent="1" source="MY9QReCegGXV87JuzJlH-23" target="MY9QReCegGXV87JuzJlH-25">
          <mxGeometry width="50" height="50" relative="1" as="geometry">
            <mxPoint x="380" y="900" as="sourcePoint" />
            <mxPoint x="430" y="850" as="targetPoint" />
          </mxGeometry>
        </mxCell>
        <mxCell id="MY9QReCegGXV87JuzJlH-27" value="" style="endArrow=classic;html=1;rounded=0;" edge="1" parent="1">
          <mxGeometry width="50" height="50" relative="1" as="geometry">
            <mxPoint x="680" y="900" as="sourcePoint" />
            <mxPoint x="280" y="900" as="targetPoint" />
          </mxGeometry>
        </mxCell>
        <mxCell id="MY9QReCegGXV87JuzJlH-28" value="" style="ellipse;whiteSpace=wrap;html=1;aspect=fixed;" vertex="1" parent="1">
          <mxGeometry x="680" y="880" width="40" height="40" as="geometry" />
        </mxCell>
        <mxCell id="MY9QReCegGXV87JuzJlH-29" value="" style="endArrow=classic;html=1;rounded=0;entryX=0.5;entryY=0;entryDx=0;entryDy=0;" edge="1" parent="1" target="MY9QReCegGXV87JuzJlH-28">
          <mxGeometry width="50" height="50" relative="1" as="geometry">
            <mxPoint x="700" y="590" as="sourcePoint" />
            <mxPoint x="430" y="820" as="targetPoint" />
          </mxGeometry>
        </mxCell>
        <mxCell id="MY9QReCegGXV87JuzJlH-30" value="" style="endArrow=classic;html=1;rounded=0;exitX=1;exitY=0.5;exitDx=0;exitDy=0;" edge="1" parent="1" source="MY9QReCegGXV87JuzJlH-12">
          <mxGeometry width="50" height="50" relative="1" as="geometry">
            <mxPoint x="380" y="870" as="sourcePoint" />
            <mxPoint x="700" y="590" as="targetPoint" />
          </mxGeometry>
        </mxCell>
        <mxCell id="MY9QReCegGXV87JuzJlH-31" value="" style="endArrow=classic;html=1;rounded=0;exitX=1;exitY=0.5;exitDx=0;exitDy=0;" edge="1" parent="1">
          <mxGeometry width="50" height="50" relative="1" as="geometry">
            <mxPoint x="635" y="720" as="sourcePoint" />
            <mxPoint x="700" y="720" as="targetPoint" />
          </mxGeometry>
        </mxCell>
      </root>
    </mxGraphModel>
  </diagram>
</mxfile>
